# Blender v2.79 (sub 0) OBJ File: 'bigz.blend'
# www.blender.org
mtllib bigz.mtl
o Plane
v 4.670405 -0.016977 1.000000
v 4.670405 1.983023 1.000000
v 4.670405 -0.016977 -1.000000
v 4.670405 1.983023 -1.000000
v -3.862027 -0.016977 1.000000
v -3.862027 1.983023 1.000000
v -3.862027 -0.016977 -1.000000
v -3.862027 1.983023 -1.000000
v 4.665152 11.260060 1.000000
v 0.810110 11.314528 1.000000
v 4.665152 11.260060 -1.000000
v 0.810110 11.314528 -1.000000
v -0.654297 1.927911 1.000000
v -3.862547 1.983066 1.000000
v -0.654297 1.927911 -1.000000
v -3.862547 1.983066 -1.000000
v 4.670405 11.256470 1.000000
v 4.670405 13.256470 1.000000
v 4.670405 11.256470 -1.000000
v 4.670405 13.256470 -1.000000
v -3.862027 11.256470 1.000000
v -3.862027 13.256470 1.000000
v -3.862027 11.256470 -1.000000
v -3.862027 13.256470 -1.000000
vt 0.401325 0.831368
vt 0.401325 0.938703
vt 0.283678 0.938703
vt 0.283678 0.831368
vt 0.165695 0.659175
vt 0.283678 0.659175
vt 0.283678 0.766510
vt 0.165695 0.766510
vt 0.761226 0.457913
vt 0.880613 0.457913
vt 0.880613 0.915821
vt 0.761226 0.915821
vt 0.641839 0.991152
vt 0.522452 0.991152
vt 0.522452 0.533247
vt 0.641839 0.533247
vt 0.880613 0.000000
vt 1.000000 0.000000
vt 1.000000 0.457913
vt 0.880613 0.457913
vt 0.761226 0.915826
vt 0.641839 0.915826
vt 0.641839 0.457913
vt 0.761226 0.457913
vt 0.000000 0.659175
vt 0.119387 0.659175
vt 0.119387 0.866077
vt 0.000000 0.866077
vt 0.403065 0.659175
vt 0.403065 0.831368
vt 0.283678 0.831368
vt 0.283678 0.659175
vt 0.641839 0.533247
vt 0.522452 0.533247
vt 0.522452 0.000000
vt 0.641839 0.000000
vt 0.522452 0.542094
vt 0.403065 0.542094
vt 0.403065 0.000000
vt 0.522452 0.000000
vt 0.201533 0.099915
vt 0.403065 0.000000
vt 0.403065 0.576482
vt 0.235055 0.659175
vt 0.201533 0.659175
vt 0.000000 0.559261
vt 0.033522 0.000000
vt 0.201533 0.082693
vt 0.117647 0.866077
vt 0.117647 0.973412
vt 0.000000 0.973412
vt 0.000000 0.866077
vt 0.283678 0.873845
vt 0.165695 0.873845
vt 0.165695 0.766510
vt 0.283678 0.766510
vt 0.880613 0.457913
vt 1.000000 0.457913
vt 1.000000 0.915821
vt 0.880613 0.915821
vt 0.522452 1.000000
vt 0.403065 1.000000
vt 0.403065 0.542094
vt 0.522452 0.542094
vt 0.761226 0.457913
vt 0.641839 0.457913
vt 0.641839 0.000000
vt 0.761226 0.000000
vt 0.880613 0.457913
vt 0.761226 0.457913
vt 0.761226 0.000000
vt 0.880613 0.000000
vn 1.0000 0.0000 0.0000
vn -1.0000 0.0000 0.0000
vn 0.0000 1.0000 0.0000
vn -0.0000 -1.0000 0.0000
vn 0.0000 0.0000 -1.0000
vn 0.0000 0.0000 1.0000
vn 0.0141 0.9999 0.0000
vn -0.0172 -0.9999 0.0000
vn -0.8942 0.4477 0.0000
vn 0.8688 -0.4952 0.0000
usemtl None
s off
f 1/1/1 3/2/1 4/3/1 2/4/1
f 5/5/2 6/6/2 8/7/2 7/8/2
f 2/9/3 4/10/3 8/11/3 6/12/3
f 3/13/4 1/14/4 5/15/4 7/16/4
f 4/17/5 3/18/5 7/19/5 8/20/5
f 1/21/6 2/22/6 6/23/6 5/24/6
f 9/25/7 11/26/7 12/27/7 10/28/7
f 13/29/8 14/30/8 16/31/8 15/32/8
f 10/33/9 12/34/9 16/35/9 14/36/9
f 11/37/10 9/38/10 13/39/10 15/40/10
f 12/41/5 11/42/5 15/43/5 16/44/5
f 9/45/6 10/46/6 14/47/6 13/48/6
f 17/49/1 19/50/1 20/51/1 18/52/1
f 21/53/2 22/54/2 24/55/2 23/56/2
f 18/57/3 20/58/3 24/59/3 22/60/3
f 19/61/4 17/62/4 21/63/4 23/64/4
f 20/65/5 19/66/5 23/67/5 24/68/5
f 17/69/6 18/70/6 22/71/6 21/72/6
