# Alias OBJ Model File
# Exported from SketchUp, (c) 2000-2012 Trimble Navigation Limited
# File units = meters

mtllib brick.mtl

g Mesh1 Component_1_1 Model

usemtl FrontColor
v -0.208089 0.142065 -0.00336444
vt 0 0
vn 0 1 -0
v 0.000398781 0.142065 -0.00336444
vt 86.2205 0
v 0.000398781 0.142065 -0.211852
vt 86.2205 86.2205
v -0.208089 0.142065 -0.211852
vt 0 86.2205
f 1/1/1 2/2/1 3/3/1 4/4/1 

v -0.208089 0.000217436 -0.00336444
vn 0 0 1
v 0.000398781 0.000217436 -0.00336444
vt 86.2205 58.6614
vt 0 58.6614
f 5/1/2 6/2/2 2/5/2 1/6/2 

v 0.000398781 0.000217436 -0.211852
v -0.208089 0.000217436 -0.211852
f 5/1/1 6/2/1 7/3/1 8/4/1 

vn 1 0 -0
f 6/1/3 7/2/3 3/5/3 2/6/3 

vt -86.2205 0
vn 0 0 -1
vt -86.2205 58.6614
f 7/7/4 8/1/4 4/6/4 3/8/4 

vn -1 0 -0
f 8/7/5 5/1/5 1/6/5 4/8/5 

