# MagicaVoxel @ Ephtracy

# material
mtllib Ghosty.mtl
usemtl palette

# normals
vn -1 0 0
vn 1 0 0
vn 0 0 1
vn 0 0 -1
vn 0 -1 0
vn 0 1 0

# texcoords
vt 0.00195313 0.5
vt 0.0332031 0.5
vt 0.0605469 0.5
vt 0.142578 0.5
vt 0.521484 0.5
vt 0.611328 0.5
vt 0.634766 0.5
vt 0.646484 0.5
vt 0.955078 0.5
vt 0.958984 0.5
vt 0.962891 0.5

# verts
v -4 6 5.5
v -4 6 1.5
v -4 6 0.5
v -4 7 5.5
v -4 7 1.5
v -4 7 0.5
v -3 1 0.5
v -3 1 -0.5
v -3 2 1.5
v -3 2 0.5
v -3 2 -0.5
v -3 2 -1.5
v -3 3 2.5
v -3 3 1.5
v -3 3 -1.5
v -3 3 -2.5
v -3 6 2.5
v -3 6 1.5
v -3 6 0.5
v -3 7 2.5
v -3 7 1.5
v -3 7 0.5
v -3 11 2.5
v -3 11 1.5
v -3 11 -1.5
v -3 11 -2.5
v -3 12 1.5
v -3 12 -1.5
v -2 1 1.5
v -2 1 0.5
v -2 1 -0.5
v -2 1 -1.5
v -2 2 2.5
v -2 2 1.5
v -2 2 0.5
v -2 2 -0.5
v -2 2 -1.5
v -2 2 -2.5
v -2 3 2.5
v -2 3 1.5
v -2 3 -1.5
v -2 3 -2.5
v -2 11 2.5
v -2 11 1.5
v -2 11 -1.5
v -2 11 -2.5
v -2 12 2.5
v -2 12 1.5
v -2 12 -1.5
v -2 12 -2.5
v -2 13 1.5
v -2 13 -1.5
v -1 0 1.5
v -1 0 -1.5
v -1 1 2.5
v -1 1 1.5
v -1 1 0.5
v -1 1 -0.5
v -1 1 -1.5
v -1 1 -2.5
v -1 2 2.5
v -1 2 1.5
v -1 2 -1.5
v -1 2 -2.5
v -1 5 2.5
v -1 5 1.5
v -1 6 2.5
v -1 6 1.5
v -1 8 2.5
v -1 8 1.5
v -1 10 2.5
v -1 10 1.5
v 1 7 2.5
v 1 7 1.5
v 1 8 2.5
v 1 8 1.5
v 2 5 2.5
v 2 5 1.5
v 2 7 2.5
v 2 7 1.5
v 2 8 2.5
v 2 8 1.5
v 2 10 2.5
v 2 10 1.5
v 3 6 5.5
v 3 6 2.5
v 3 7 5.5
v 3 7 2.5
v -3 6 5.5
v -3 6 2.5
v -3 7 5.5
v -3 7 2.5
v -2 5 2.5
v -2 5 1.5
v -2 7 2.5
v -2 7 1.5
v -2 8 2.5
v -2 8 1.5
v -2 10 2.5
v -2 10 1.5
v -1 7 2.5
v -1 7 1.5
v -1 8 2.5
v -1 8 1.5
v 1 0 1.5
v 1 0 -1.5
v 1 1 2.5
v 1 1 1.5
v 1 1 -1.5
v 1 1 -2.5
v 1 2 2.5
v 1 2 1.5
v 1 2 -1.5
v 1 2 -2.5
v 1 5 2.5
v 1 5 1.5
v 1 6 2.5
v 1 6 1.5
v 1 8 2.5
v 1 8 1.5
v 1 10 2.5
v 1 10 1.5
v 2 1 1.5
v 2 1 0.5
v 2 1 -0.5
v 2 1 -1.5
v 2 2 2.5
v 2 2 1.5
v 2 2 0.5
v 2 2 -0.5
v 2 2 -1.5
v 2 2 -2.5
v 2 3 2.5
v 2 3 1.5
v 2 3 -1.5
v 2 3 -2.5
v 2 11 2.5
v 2 11 1.5
v 2 11 -1.5
v 2 11 -2.5
v 2 12 2.5
v 2 12 1.5
v 2 12 -1.5
v 2 12 -2.5
v 2 13 1.5
v 2 13 -1.5
v 3 1 0.5
v 3 1 -0.5
v 3 2 1.5
v 3 2 0.5
v 3 2 -0.5
v 3 2 -1.5
v 3 3 2.5
v 3 3 1.5
v 3 3 -1.5
v 3 3 -2.5
v 3 6 2.5
v 3 6 1.5
v 3 6 0.5
v 3 7 2.5
v 3 7 1.5
v 3 7 0.5
v 3 11 2.5
v 3 11 1.5
v 3 11 -1.5
v 3 11 -2.5
v 3 12 1.5
v 3 12 -1.5
v 4 6 5.5
v 4 6 1.5
v 4 6 0.5
v 4 7 5.5
v 4 7 1.5
v 4 7 0.5
v -4 6 5.5
v -4 7 5.5
v -3 6 5.5
v -3 7 5.5
v 3 6 5.5
v 3 7 5.5
v 4 6 5.5
v 4 7 5.5
v -3 3 2.5
v -3 6 2.5
v -3 7 2.5
v -3 11 2.5
v -2 2 2.5
v -2 3 2.5
v -2 5 2.5
v -2 7 2.5
v -2 8 2.5
v -2 10 2.5
v -2 11 2.5
v -2 12 2.5
v -1 1 2.5
v -1 2 2.5
v -1 5 2.5
v -1 6 2.5
v -1 7 2.5
v -1 8 2.5
v -1 10 2.5
v 1 1 2.5
v 1 2 2.5
v 1 5 2.5
v 1 6 2.5
v 1 7 2.5
v 1 8 2.5
v 1 10 2.5
v 2 2 2.5
v 2 3 2.5
v 2 5 2.5
v 2 7 2.5
v 2 8 2.5
v 2 10 2.5
v 2 11 2.5
v 2 12 2.5
v 3 3 2.5
v 3 6 2.5
v 3 7 2.5
v 3 11 2.5
v -3 2 1.5
v -3 3 1.5
v -3 11 1.5
v -3 12 1.5
v -2 1 1.5
v -2 2 1.5
v -2 3 1.5
v -2 5 1.5
v -2 7 1.5
v -2 8 1.5
v -2 10 1.5
v -2 11 1.5
v -2 12 1.5
v -2 13 1.5
v -1 0 1.5
v -1 1 1.5
v -1 2 1.5
v -1 5 1.5
v -1 6 1.5
v -1 7 1.5
v -1 8 1.5
v -1 10 1.5
v 1 0 1.5
v 1 1 1.5
v 1 2 1.5
v 1 5 1.5
v 1 6 1.5
v 1 7 1.5
v 1 8 1.5
v 1 10 1.5
v 2 1 1.5
v 2 2 1.5
v 2 3 1.5
v 2 5 1.5
v 2 7 1.5
v 2 8 1.5
v 2 10 1.5
v 2 11 1.5
v 2 12 1.5
v 2 13 1.5
v 3 2 1.5
v 3 3 1.5
v 3 11 1.5
v 3 12 1.5
v -3 1 0.5
v -3 2 0.5
v -2 1 0.5
v -2 2 0.5
v 2 1 0.5
v 2 2 0.5
v 3 1 0.5
v 3 2 0.5
v -4 6 0.5
v -4 7 0.5
v -3 6 0.5
v -3 7 0.5
v 3 6 0.5
v 3 7 0.5
v 4 6 0.5
v 4 7 0.5
v -3 1 -0.5
v -3 2 -0.5
v -2 1 -0.5
v -2 2 -0.5
v 2 1 -0.5
v 2 2 -0.5
v 3 1 -0.5
v 3 2 -0.5
v -3 2 -1.5
v -3 3 -1.5
v -3 11 -1.5
v -3 12 -1.5
v -2 1 -1.5
v -2 2 -1.5
v -2 3 -1.5
v -2 11 -1.5
v -2 12 -1.5
v -2 13 -1.5
v -1 0 -1.5
v -1 1 -1.5
v -1 2 -1.5
v 1 0 -1.5
v 1 1 -1.5
v 1 2 -1.5
v 2 1 -1.5
v 2 2 -1.5
v 2 3 -1.5
v 2 11 -1.5
v 2 12 -1.5
v 2 13 -1.5
v 3 2 -1.5
v 3 3 -1.5
v 3 11 -1.5
v 3 12 -1.5
v -3 3 -2.5
v -3 11 -2.5
v -2 2 -2.5
v -2 3 -2.5
v -2 11 -2.5
v -2 12 -2.5
v -1 1 -2.5
v -1 2 -2.5
v 1 1 -2.5
v 1 2 -2.5
v 2 2 -2.5
v 2 3 -2.5
v 2 11 -2.5
v 2 12 -2.5
v 3 3 -2.5
v 3 11 -2.5
v -1 0 1.5
v 1 0 1.5
v -1 0 -1.5
v 1 0 -1.5
v -1 1 2.5
v 1 1 2.5
v -2 1 1.5
v -1 1 1.5
v 1 1 1.5
v 2 1 1.5
v -3 1 0.5
v -2 1 0.5
v -1 1 0.5
v 2 1 0.5
v 3 1 0.5
v -3 1 -0.5
v -2 1 -0.5
v -1 1 -0.5
v 2 1 -0.5
v 3 1 -0.5
v -2 1 -1.5
v -1 1 -1.5
v 1 1 -1.5
v 2 1 -1.5
v -1 1 -2.5
v 1 1 -2.5
v -2 2 2.5
v -1 2 2.5
v 1 2 2.5
v 2 2 2.5
v -3 2 1.5
v -2 2 1.5
v -1 2 1.5
v 1 2 1.5
v 2 2 1.5
v 3 2 1.5
v -3 2 0.5
v -2 2 0.5
v 2 2 0.5
v 3 2 0.5
v -3 2 -0.5
v -2 2 -0.5
v 2 2 -0.5
v 3 2 -0.5
v -3 2 -1.5
v -2 2 -1.5
v -1 2 -1.5
v 1 2 -1.5
v 2 2 -1.5
v 3 2 -1.5
v -2 2 -2.5
v -1 2 -2.5
v 1 2 -2.5
v 2 2 -2.5
v -3 3 2.5
v -2 3 2.5
v 2 3 2.5
v 3 3 2.5
v -3 3 1.5
v -2 3 1.5
v 2 3 1.5
v 3 3 1.5
v -3 3 -1.5
v -2 3 -1.5
v 2 3 -1.5
v 3 3 -1.5
v -3 3 -2.5
v -2 3 -2.5
v 2 3 -2.5
v 3 3 -2.5
v -4 6 5.5
v -3 6 5.5
v 3 6 5.5
v 4 6 5.5
v -3 6 2.5
v 3 6 2.5
v -4 6 1.5
v -3 6 1.5
v 3 6 1.5
v 4 6 1.5
v -4 6 0.5
v -3 6 0.5
v 3 6 0.5
v 4 6 0.5
v -2 7 2.5
v -1 7 2.5
v 1 7 2.5
v 2 7 2.5
v -2 7 1.5
v -1 7 1.5
v 1 7 1.5
v 2 7 1.5
v -1 8 2.5
v 1 8 2.5
v -1 8 1.5
v 1 8 1.5
v -2 10 2.5
v -1 10 2.5
v 1 10 2.5
v 2 10 2.5
v -2 10 1.5
v -1 10 1.5
v 1 10 1.5
v 2 10 1.5
v -2 5 2.5
v -1 5 2.5
v 1 5 2.5
v 2 5 2.5
v -2 5 1.5
v -1 5 1.5
v 1 5 1.5
v 2 5 1.5
v -1 6 2.5
v 1 6 2.5
v -1 6 1.5
v 1 6 1.5
v -4 7 5.5
v -3 7 5.5
v 3 7 5.5
v 4 7 5.5
v -3 7 2.5
v 3 7 2.5
v -4 7 1.5
v -3 7 1.5
v 3 7 1.5
v 4 7 1.5
v -4 7 0.5
v -3 7 0.5
v 3 7 0.5
v 4 7 0.5
v -2 8 2.5
v -1 8 2.5
v 1 8 2.5
v 2 8 2.5
v -2 8 1.5
v -1 8 1.5
v 1 8 1.5
v 2 8 1.5
v -3 11 2.5
v -2 11 2.5
v 2 11 2.5
v 3 11 2.5
v -3 11 1.5
v -2 11 1.5
v 2 11 1.5
v 3 11 1.5
v -3 11 -1.5
v -2 11 -1.5
v 2 11 -1.5
v 3 11 -1.5
v -3 11 -2.5
v -2 11 -2.5
v 2 11 -2.5
v 3 11 -2.5
v -2 12 2.5
v 2 12 2.5
v -3 12 1.5
v -2 12 1.5
v 2 12 1.5
v 3 12 1.5
v -3 12 -1.5
v -2 12 -1.5
v 2 12 -1.5
v 3 12 -1.5
v -2 12 -2.5
v 2 12 -2.5
v -2 13 1.5
v 2 13 1.5
v -2 13 -1.5
v 2 13 -1.5

# faces
f 4/10/1 2/10/1 1/10/1
f 5/11/1 3/11/1 2/11/1
f 5/10/1 2/10/1 4/10/1
f 6/11/1 3/11/1 5/11/1
f 10/10/1 8/10/1 7/10/1
f 11/10/1 8/10/1 10/10/1
f 14/10/1 10/10/1 9/10/1
f 14/10/1 12/10/1 11/10/1
f 14/10/1 11/10/1 10/10/1
f 15/10/1 12/10/1 14/10/1
f 17/10/1 14/10/1 13/10/1
f 17/10/1 16/10/1 15/10/1
f 17/10/1 15/10/1 14/10/1
f 18/10/1 16/10/1 17/10/1
f 19/10/1 16/10/1 18/10/1
f 22/10/1 16/10/1 19/10/1
f 23/10/1 21/10/1 20/10/1
f 23/10/1 22/10/1 21/10/1
f 24/10/1 22/10/1 23/10/1
f 25/10/1 16/10/1 22/10/1
f 25/10/1 22/10/1 24/10/1
f 26/10/1 16/10/1 25/10/1
f 27/10/1 25/10/1 24/10/1
f 28/10/1 25/10/1 27/10/1
f 34/10/1 30/10/1 29/10/1
f 35/10/1 30/10/1 34/10/1
f 36/10/1 32/10/1 31/10/1
f 37/10/1 32/10/1 36/10/1
f 39/10/1 34/10/1 33/10/1
f 40/10/1 34/10/1 39/10/1
f 41/10/1 38/10/1 37/10/1
f 42/10/1 38/10/1 41/10/1
f 47/10/1 44/10/1 43/10/1
f 48/10/1 44/10/1 47/10/1
f 49/10/1 46/10/1 45/10/1
f 50/10/1 46/10/1 49/10/1
f 51/10/1 49/10/1 48/10/1
f 52/10/1 49/10/1 51/10/1
f 56/10/1 54/10/1 53/10/1
f 57/10/1 54/10/1 56/10/1
f 58/10/1 54/10/1 57/10/1
f 59/10/1 54/10/1 58/10/1
f 61/10/1 56/10/1 55/10/1
f 62/10/1 56/10/1 61/10/1
f 63/10/1 60/10/1 59/10/1
f 64/10/1 60/10/1 63/10/1
f 67/10/1 66/10/1 65/10/1
f 68/10/1 66/10/1 67/10/1
f 71/10/1 70/10/1 69/10/1
f 72/10/1 70/10/1 71/10/1
f 75/10/1 74/10/1 73/10/1
f 76/10/1 74/10/1 75/10/1
f 79/10/1 78/10/1 77/10/1
f 80/10/1 78/10/1 79/10/1
f 83/10/1 82/10/1 81/10/1
f 84/10/1 82/10/1 83/10/1
f 87/10/1 86/10/1 85/10/1
f 88/10/1 86/10/1 87/10/1
f 89/10/2 90/10/2 91/10/2
f 91/10/2 90/10/2 92/10/2
f 93/10/2 94/10/2 95/10/2
f 95/10/2 94/10/2 96/10/2
f 97/10/2 98/10/2 99/10/2
f 99/10/2 98/10/2 100/10/2
f 101/10/2 102/10/2 103/10/2
f 103/10/2 102/10/2 104/10/2
f 105/10/2 106/10/2 108/10/2
f 108/10/2 106/10/2 109/10/2
f 107/10/2 108/10/2 111/10/2
f 111/10/2 108/10/2 112/10/2
f 109/10/2 110/10/2 113/10/2
f 113/10/2 110/10/2 114/10/2
f 115/10/2 116/10/2 117/10/2
f 117/10/2 116/10/2 118/10/2
f 119/10/2 120/10/2 121/10/2
f 121/10/2 120/10/2 122/10/2
f 123/10/2 124/10/2 128/10/2
f 128/10/2 124/10/2 129/10/2
f 125/10/2 126/10/2 130/10/2
f 130/10/2 126/10/2 131/10/2
f 127/10/2 128/10/2 133/10/2
f 133/10/2 128/10/2 134/10/2
f 131/10/2 132/10/2 135/10/2
f 135/10/2 132/10/2 136/10/2
f 137/10/2 138/10/2 141/10/2
f 141/10/2 138/10/2 142/10/2
f 139/10/2 140/10/2 143/10/2
f 143/10/2 140/10/2 144/10/2
f 142/10/2 143/10/2 145/10/2
f 145/10/2 143/10/2 146/10/2
f 147/10/2 148/10/2 150/10/2
f 150/10/2 148/10/2 151/10/2
f 149/10/2 150/10/2 154/10/2
f 151/10/2 152/10/2 154/10/2
f 150/10/2 151/10/2 154/10/2
f 154/10/2 152/10/2 155/10/2
f 153/10/2 154/10/2 157/10/2
f 155/10/2 156/10/2 157/10/2
f 154/10/2 155/10/2 157/10/2
f 157/10/2 156/10/2 158/10/2
f 158/10/2 156/10/2 159/10/2
f 159/10/2 156/10/2 162/10/2
f 160/10/2 161/10/2 163/10/2
f 161/10/2 162/10/2 163/10/2
f 163/10/2 162/10/2 164/10/2
f 162/10/2 156/10/2 165/10/2
f 164/10/2 162/10/2 165/10/2
f 165/10/2 156/10/2 166/10/2
f 164/10/2 165/10/2 167/10/2
f 167/10/2 165/10/2 168/10/2
f 169/10/2 170/10/2 172/10/2
f 170/11/2 171/11/2 173/11/2
f 172/10/2 170/10/2 173/10/2
f 173/11/2 171/11/2 174/11/2
f 177/10/3 176/10/3 175/10/3
f 178/10/3 176/10/3 177/10/3
f 181/10/3 180/10/3 179/10/3
f 182/10/3 180/10/3 181/10/3
f 188/10/3 184/10/3 183/10/3
f 188/10/3 186/10/3 185/10/3
f 188/10/3 185/10/3 184/10/3
f 189/10/3 186/10/3 188/10/3
f 190/10/3 186/10/3 189/10/3
f 191/10/3 186/10/3 190/10/3
f 192/10/3 186/10/3 191/10/3
f 193/10/3 186/10/3 192/10/3
f 196/10/3 188/10/3 187/10/3
f 196/10/3 189/10/3 188/10/3
f 197/10/3 189/10/3 196/10/3
f 199/10/3 191/10/3 190/10/3
f 200/10/3 191/10/3 199/10/3
f 201/10/3 193/10/3 192/10/3
f 201/10/3 194/10/3 193/10/3
f 202/10/3 198/10/3 197/10/3
f 202/10/3 196/10/3 195/10/3
f 202/10/3 197/10/3 196/10/3
f 203/10/3 198/10/3 202/10/3
f 204/10/3 198/10/3 203/10/3
f 205/10/3 198/10/3 204/10/3
f 207/10/3 201/10/3 200/10/3
f 208/10/3 194/10/3 201/10/3
f 208/10/3 201/10/3 207/10/3
f 209/10/3 204/10/3 203/10/3
f 210/10/3 204/10/3 209/10/3
f 211/10/3 204/10/3 210/10/3
f 212/10/3 207/10/3 206/10/3
f 213/10/3 207/10/3 212/10/3
f 214/10/3 194/10/3 208/10/3
f 215/10/3 194/10/3 214/10/3
f 216/10/3 194/10/3 215/10/3
f 217/10/3 213/10/3 212/10/3
f 217/10/3 211/10/3 210/10/3
f 217/10/3 215/10/3 214/10/3
f 217/10/3 214/10/3 213/10/3
f 217/10/3 212/10/3 211/10/3
f 218/10/3 215/10/3 217/10/3
f 219/10/3 215/10/3 218/10/3
f 220/10/3 215/10/3 219/10/3
f 226/10/3 222/10/3 221/10/3
f 227/10/3 222/10/3 226/10/3
f 232/10/3 224/10/3 223/10/3
f 233/10/3 224/10/3 232/10/3
f 236/10/3 226/10/3 225/10/3
f 237/10/3 226/10/3 236/10/3
f 238/9/3 229/9/3 228/9/3
f 239/9/3 229/9/3 238/9/3
f 240/9/3 229/9/3 239/9/3
f 241/9/3 231/9/3 230/9/3
f 242/9/3 231/9/3 241/9/3
f 243/10/3 236/10/3 235/10/3
f 244/10/3 236/10/3 243/10/3
f 247/9/3 240/9/3 239/9/3
f 247/9/3 241/9/3 240/9/3
f 248/9/3 241/9/3 247/9/3
f 249/9/3 241/9/3 248/9/3
f 251/10/3 245/10/3 244/10/3
f 252/10/3 245/10/3 251/10/3
f 254/9/3 248/9/3 247/9/3
f 254/9/3 247/9/3 246/9/3
f 255/9/3 248/9/3 254/9/3
f 256/9/3 250/9/3 249/9/3
f 257/9/3 250/9/3 256/9/3
f 259/10/3 234/10/3 233/10/3
f 260/10/3 234/10/3 259/10/3
f 261/10/3 253/10/3 252/10/3
f 262/10/3 253/10/3 261/10/3
f 263/10/3 259/10/3 258/10/3
f 264/10/3 259/10/3 263/10/3
f 267/10/3 266/10/3 265/10/3
f 268/10/3 266/10/3 267/10/3
f 271/10/3 270/10/3 269/10/3
f 272/10/3 270/10/3 271/10/3
f 273/11/4 274/11/4 275/11/4
f 275/11/4 274/11/4 276/11/4
f 277/11/4 278/11/4 279/11/4
f 279/11/4 278/11/4 280/11/4
f 281/10/4 282/10/4 283/10/4
f 283/10/4 282/10/4 284/10/4
f 285/10/4 286/10/4 287/10/4
f 287/10/4 286/10/4 288/10/4
f 289/10/4 290/10/4 294/10/4
f 294/10/4 290/10/4 295/10/4
f 291/10/4 292/10/4 296/10/4
f 296/10/4 292/10/4 297/10/4
f 293/10/4 294/10/4 300/10/4
f 300/10/4 294/10/4 301/10/4
f 299/10/4 300/10/4 302/10/4
f 302/10/4 300/10/4 303/10/4
f 303/10/4 304/10/4 305/10/4
f 305/10/4 304/10/4 306/10/4
f 297/10/4 298/10/4 309/10/4
f 309/10/4 298/10/4 310/10/4
f 306/10/4 307/10/4 311/10/4
f 311/10/4 307/10/4 312/10/4
f 308/10/4 309/10/4 313/10/4
f 313/10/4 309/10/4 314/10/4
f 315/10/4 316/10/4 318/10/4
f 318/10/4 316/10/4 319/10/4
f 317/10/4 318/10/4 322/10/4
f 319/10/4 320/10/4 322/10/4
f 318/10/4 319/10/4 322/10/4
f 321/10/4 322/10/4 323/10/4
f 322/10/4 320/10/4 324/10/4
f 323/10/4 322/10/4 324/10/4
f 324/10/4 320/10/4 325/10/4
f 325/10/4 320/10/4 326/10/4
f 326/10/4 320/10/4 327/10/4
f 327/10/4 320/10/4 328/10/4
f 326/10/4 327/10/4 329/10/4
f 329/10/4 327/10/4 330/10/4
f 333/10/5 332/10/5 331/10/5
f 334/10/5 332/10/5 333/10/5
f 338/10/5 336/10/5 335/10/5
f 339/10/5 336/10/5 338/10/5
f 342/10/5 338/10/5 337/10/5
f 343/10/5 338/10/5 342/10/5
f 344/10/5 340/10/5 339/10/5
f 346/10/5 342/10/5 341/10/5
f 347/4/5 343/4/5 342/4/5
f 347/10/5 342/10/5 346/10/5
f 348/4/5 343/4/5 347/4/5
f 349/10/5 345/10/5 344/10/5
f 349/10/5 344/10/5 339/10/5
f 350/10/5 345/10/5 349/10/5
f 351/10/5 348/10/5 347/10/5
f 352/10/5 348/10/5 351/10/5
f 353/10/5 349/10/5 339/10/5
f 354/10/5 349/10/5 353/10/5
f 355/10/5 353/10/5 352/10/5
f 356/10/5 353/10/5 355/10/5
f 362/10/5 358/10/5 357/10/5
f 363/10/5 358/10/5 362/10/5
f 364/10/5 360/10/5 359/10/5
f 365/10/5 360/10/5 364/10/5
f 367/10/5 362/10/5 361/10/5
f 368/10/5 362/10/5 367/10/5
f 369/10/5 366/10/5 365/10/5
f 370/10/5 366/10/5 369/10/5
f 375/10/5 372/10/5 371/10/5
f 376/10/5 372/10/5 375/10/5
f 379/10/5 374/10/5 373/10/5
f 380/10/5 374/10/5 379/10/5
f 381/10/5 377/10/5 376/10/5
f 382/10/5 377/10/5 381/10/5
f 383/10/5 379/10/5 378/10/5
f 384/10/5 379/10/5 383/10/5
f 389/10/5 386/10/5 385/10/5
f 390/10/5 386/10/5 389/10/5
f 391/10/5 388/10/5 387/10/5
f 392/10/5 388/10/5 391/10/5
f 397/10/5 394/10/5 393/10/5
f 398/10/5 394/10/5 397/10/5
f 399/10/5 396/10/5 395/10/5
f 400/10/5 396/10/5 399/10/5
f 405/10/5 402/10/5 401/10/5
f 406/10/5 404/10/5 403/10/5
f 407/10/5 405/10/5 401/10/5
f 408/10/5 405/10/5 407/10/5
f 409/10/5 404/10/5 406/10/5
f 410/10/5 404/10/5 409/10/5
f 411/11/5 408/11/5 407/11/5
f 412/11/5 408/11/5 411/11/5
f 413/11/5 410/11/5 409/11/5
f 414/11/5 410/11/5 413/11/5
f 419/10/5 416/10/5 415/10/5
f 420/10/5 416/10/5 419/10/5
f 421/10/5 418/10/5 417/10/5
f 422/10/5 418/10/5 421/10/5
f 425/10/5 424/10/5 423/10/5
f 426/10/5 424/10/5 425/10/5
f 431/10/5 428/10/5 427/10/5
f 432/10/5 428/10/5 431/10/5
f 433/10/5 430/10/5 429/10/5
f 434/10/5 430/10/5 433/10/5
f 435/10/6 436/10/6 439/10/6
f 439/10/6 436/10/6 440/10/6
f 437/10/6 438/10/6 441/10/6
f 441/10/6 438/10/6 442/10/6
f 443/10/6 444/10/6 445/10/6
f 445/10/6 444/10/6 446/10/6
f 447/10/6 448/10/6 451/10/6
f 449/10/6 450/10/6 452/10/6
f 447/10/6 451/10/6 453/10/6
f 453/10/6 451/10/6 454/10/6
f 452/10/6 450/10/6 455/10/6
f 455/10/6 450/10/6 456/10/6
f 453/11/6 454/11/6 457/11/6
f 457/11/6 454/11/6 458/11/6
f 455/11/6 456/11/6 459/11/6
f 459/11/6 456/11/6 460/11/6
f 461/10/6 462/10/6 465/10/6
f 465/10/6 462/10/6 466/10/6
f 463/10/6 464/10/6 467/10/6
f 467/10/6 464/10/6 468/10/6
f 469/10/6 470/10/6 473/10/6
f 473/10/6 470/10/6 474/10/6
f 471/10/6 472/10/6 475/10/6
f 475/10/6 472/10/6 476/10/6
f 477/10/6 478/10/6 481/10/6
f 481/10/6 478/10/6 482/10/6
f 479/10/6 480/10/6 483/10/6
f 483/10/6 480/10/6 484/10/6
f 485/10/6 486/10/6 488/10/6
f 488/10/6 486/10/6 489/10/6
f 487/10/6 488/10/6 491/10/6
f 491/10/6 488/10/6 492/10/6
f 489/10/6 490/10/6 493/10/6
f 493/10/6 490/10/6 494/10/6
f 492/10/6 493/10/6 495/10/6
f 495/10/6 493/10/6 496/10/6
f 497/10/6 498/10/6 499/10/6
f 499/10/6 498/10/6 500/10/6
